<svg

  viewBox="0 0 856 228"
  xmlns="http://www.w3.org/2000/svg"
>
  <path
    fill="currentColor"
    d="M16.334 207V78.293h41.132c6.69 0 12.792.59 18.302 1.771 5.642 1.05 10.496 2.82 14.563 5.314 4.199 2.361 7.413 5.576 9.643 9.643 2.362 4.067 3.543 9.053 3.543 14.957 0 6.166-1.575 11.873-4.723 17.121-3.15 5.248-7.544 8.856-13.186 10.824v.787c7.085 1.575 12.923 4.92 17.515 10.037 4.723 4.986 7.085 11.808 7.085 20.467 0 6.429-1.246 12.005-3.739 16.728-2.493 4.724-5.97 8.66-10.43 11.808-4.33 3.149-9.513 5.511-15.548 7.085-6.035 1.443-12.595 2.165-19.68 2.165H16.334zm22.83-75.571h16.334c9.052 0 15.547-1.64 19.483-4.92 4.067-3.28 6.1-7.675 6.1-13.186 0-6.297-2.099-10.758-6.297-13.382-4.198-2.624-10.496-3.936-18.893-3.936H39.163v35.424zm0 57.859H58.45c9.446 0 16.728-1.706 21.844-5.117 5.117-3.542 7.676-8.921 7.676-16.137 0-6.823-2.493-11.743-7.479-14.76-4.985-3.149-12.333-4.724-22.041-4.724H39.163v40.738zM256.334 207V78.293h43.493c6.691 0 12.923.656 18.696 1.968 5.773 1.312 10.759 3.477 14.957 6.494 4.198 2.887 7.478 6.757 9.84 11.611 2.493 4.855 3.739 10.89 3.739 18.106 0 9.84-2.361 17.778-7.085 23.813-4.592 6.035-10.758 10.365-18.499 12.989L352.176 207h-25.584l-27.749-50.381h-19.68V207h-22.829zm22.829-68.486h18.303c8.79 0 15.481-1.837 20.073-5.511 4.723-3.673 7.085-9.184 7.085-16.531 0-7.478-2.362-12.661-7.085-15.547-4.592-2.887-11.283-4.33-20.073-4.33h-18.303v41.919zM378.704 207V78.293h23.419l40.147 72.422 13.186 27.355h.787a873.232 873.232 0 00-1.968-21.451c-.656-7.741-.984-15.219-.984-22.435V78.293h21.845V207h-23.419l-40.147-72.422-13.186-27.356h-.787c.525 6.823 1.115 13.973 1.771 21.452a210.525 210.525 0 011.181 22.041V207h-21.845zm172.643 2.362c-8.659 0-17.056-1.64-25.191-4.92-8.003-3.28-15.088-7.938-21.254-13.973l13.382-15.547c4.592 4.329 9.84 7.872 15.744 10.627 5.904 2.624 11.808 3.936 17.712 3.936 7.348 0 12.924-1.509 16.728-4.527 3.805-3.017 5.708-7.019 5.708-12.004 0-2.624-.525-4.855-1.575-6.692-.918-1.836-2.296-3.411-4.133-4.723-1.705-1.443-3.804-2.755-6.297-3.936-2.362-1.181-4.986-2.361-7.872-3.542l-17.712-7.675c-3.149-1.312-6.298-2.952-9.447-4.92a42.263 42.263 0 01-8.265-7.085c-2.493-2.755-4.527-5.97-6.101-9.643-1.443-3.674-2.165-7.872-2.165-12.596 0-5.116 1.05-9.84 3.149-14.17a37.083 37.083 0 019.053-11.61c3.805-3.28 8.331-5.839 13.579-7.676 5.379-1.836 11.218-2.755 17.515-2.755 7.479 0 14.695 1.509 21.648 4.527 6.954 2.886 12.923 6.822 17.909 11.808l-11.611 14.563c-4.199-3.411-8.528-6.101-12.989-8.069-4.461-1.968-9.446-2.952-14.957-2.952-6.166 0-11.086 1.378-14.76 4.133-3.673 2.624-5.51 6.297-5.51 11.021 0 2.492.525 4.657 1.574 6.494 1.181 1.706 2.69 3.28 4.527 4.723 1.968 1.312 4.198 2.559 6.691 3.739 2.493 1.05 5.051 2.1 7.675 3.149l17.515 7.282c3.805 1.574 7.282 3.411 10.431 5.51 3.148 2.099 5.838 4.527 8.068 7.282 2.362 2.755 4.199 5.969 5.511 9.643 1.312 3.542 1.968 7.675 1.968 12.398 0 5.248-1.05 10.168-3.149 14.76-2.099 4.592-5.182 8.66-9.25 12.202-3.936 3.411-8.79 6.166-14.563 8.266-5.641 1.968-12.07 2.952-19.286 2.952zM626.903 207V78.293h41.131c6.691 0 12.792.59 18.302 1.771 5.642 1.05 10.496 2.82 14.563 5.314 4.199 2.361 7.413 5.576 9.644 9.643 2.361 4.067 3.542 9.053 3.542 14.957 0 6.166-1.574 11.873-4.723 17.121-3.149 5.248-7.544 8.856-13.186 10.824v.787c7.085 1.575 12.923 4.92 17.515 10.037 4.724 4.986 7.085 11.808 7.085 20.467 0 6.429-1.246 12.005-3.739 16.728-2.493 4.724-5.97 8.66-10.43 11.808-4.33 3.149-9.512 5.511-15.548 7.085-6.035 1.443-12.595 2.165-19.68 2.165h-44.476zm22.828-75.571h16.335c9.053 0 15.547-1.64 19.483-4.92 4.067-3.28 6.101-7.675 6.101-13.186 0-6.297-2.099-10.758-6.298-13.382-4.198-2.624-10.496-3.936-18.893-3.936h-16.728v35.424zm0 57.859h19.287c9.446 0 16.728-1.706 21.845-5.117 5.116-3.542 7.675-8.921 7.675-16.137 0-6.823-2.493-11.743-7.479-14.76-4.985-3.149-12.332-4.724-22.041-4.724h-19.287v40.738zM768.609 207v-47.822l-38.572-80.885h24.403l13.973 32.865a800.442 800.442 0 005.51 14.17 1965.61 1965.61 0 005.904 14.17h.787a908.24 908.24 0 016.101-14.17 353.954 353.954 0 005.707-14.17l13.973-32.865h23.813l-38.77 80.885V207h-22.829z"
  ></path>
  <path d="M162.5 134l-5 18H201l-5.5-18h-33z"></path>
  <path
    fill="currentColor"
    d="M165.57 0L123 129h24.5l31.753-111L210 129h25L192.937 0H165.57z"
  ></path>
</svg>
